<svg id="Layer_8" data-name="Layer 8" xmlns="http://www.w3.org/2000/svg" viewBox="0 0 40.4 40.4"><defs><style>.cls-1{fill:#56c400;}</style></defs><path class="cls-1" d="M27.42,98.5a1.83,1.83,0,0,0,0,3.66h0a1.83,1.83,0,0,0,1.83-1.83h0A1.83,1.83,0,0,0,27.42,98.5Z" transform="translate(-0.09 -74.13)"/><path class="cls-1" d="M12.77,98.5a1.83,1.83,0,0,0,0,3.66h0a1.83,1.83,0,0,0,0-3.66Z" transform="translate(-0.09 -74.13)"/><path class="cls-1" d="M20.3,74.13a20.2,20.2,0,1,0,20.2,20.2A20.21,20.21,0,0,0,20.3,74.13Zm13.21,26.2H31.07a3.66,3.66,0,0,1-7.32,0H16.43a3.66,3.66,0,0,1-7.32,0H6.67V86.91h0a2.44,2.44,0,0,1,2.44-2.44H26.19v4.88h3.66l3.66,4.88Z" transform="translate(-0.09 -74.13)"/><polygon class="cls-1" points="26.1 17.05 26.1 20.1 31.55 20.1 29.15 17.05 26.1 17.05"/></svg>