<svg id="Layer_5" data-name="Layer 5" xmlns="http://www.w3.org/2000/svg" viewBox="0 0 40.91 29.76"><defs><style>.cls-1{fill:#56c400;}</style></defs><g id="ic_business_48px" data-name="ic business 48px"><g id="ic_local_shipping_48px" data-name="ic local shipping 48px"><path id="Path_2780" data-name="Path 2780" class="cls-1" d="M35.43,17.67H29.85V10.23h-26A3.73,3.73,0,0,0,.09,14h0V34.41H3.81a5.58,5.58,0,1,0,11.16,0H26.13a5.58,5.58,0,0,0,11.16,0H41v-9.3ZM9.39,37.2a2.79,2.79,0,1,1,2.79-2.79h0A2.79,2.79,0,0,1,9.4,37.2ZM34.5,20.46l3.65,4.65h-8.3V20.46ZM31.71,37.2a2.79,2.79,0,1,1,2.79-2.79,2.79,2.79,0,0,1-2.79,2.79Z" transform="translate(-0.09 -10.23)"/></g></g></svg>