<svg xmlns="http://www.w3.org/2000/svg" viewBox="0 0 51.97 51.97"><defs><style>.cls-1{fill:#73c097;}.cls-2{fill:#fff;}</style></defs><g id="Layer_4" data-name="Layer 4"><circle class="cls-1" cx="25.99" cy="25.99" r="25.99"/></g><g id="Layer_2" data-name="Layer 2"><path class="cls-1" d="M34.61,37.7h0A2.58,2.58,0,1,0,32,35.12,2.58,2.58,0,0,0,34.62,37.7Z" transform="translate(0 -0.04)"/><path class="cls-1" d="M14,32.55a2.58,2.58,0,1,0,0,5.15h0a2.58,2.58,0,0,0,0-5.15Z" transform="translate(0 -0.04)"/><polygon class="cls-1" points="15.75 22.23 11.47 22.23 8.1 26.51 15.75 26.51 15.75 22.23"/><path class="cls-2" d="M17.14,12.83H15.75v6.86H10.61L5.47,26.55v8.57H8.89a5.15,5.15,0,1,0,10.29,0H29.47a5.15,5.15,0,1,0,10.29,0h3.43V29.45h-26ZM34.62,32.55a2.58,2.58,0,0,1,0,5.15h0a2.58,2.58,0,1,1,0-5.15Zm-26.53-6,3.37-4.29h4.29v4.29ZM14,37.7h0a2.58,2.58,0,1,1,2.58-2.58A2.58,2.58,0,0,1,14,37.7Z" transform="translate(0 -0.04)"/><rect class="cls-2" x="18.07" y="21.37" width="10.78" height="6.81"/><rect class="cls-2" x="30.13" y="21.21" width="12.99" height="7"/><rect class="cls-2" x="30.13" y="15.8" width="12.99" height="4.12"/><rect class="cls-2" x="18.11" y="14.13" width="10.78" height="5.72"/></g></svg>