<svg id="Layer_2" data-name="Layer 2" xmlns="http://www.w3.org/2000/svg" viewBox="0 0 37.72 27.44"><defs><style>.cls-1{fill:#fff;}.cls-2{fill:#73c097;}</style></defs><path class="cls-1" d="M34.61,37.7h0A2.58,2.58,0,1,0,32,35.12,2.58,2.58,0,0,0,34.62,37.7Z" transform="translate(-5.47 -12.83)"/><path class="cls-1" d="M14,32.55a2.58,2.58,0,1,0,0,5.15h0a2.58,2.58,0,0,0,0-5.15Z" transform="translate(-5.47 -12.83)"/><polygon class="cls-1" points="10.29 9.43 6 9.43 2.63 13.72 10.29 13.72 10.29 9.43"/><path class="cls-2" d="M17.14,12.83H15.75v6.86H10.61L5.47,26.55v8.57H8.89a5.15,5.15,0,1,0,10.29,0H29.47a5.15,5.15,0,1,0,10.29,0h3.43V29.45h-26ZM34.62,32.55a2.58,2.58,0,0,1,0,5.15h0a2.58,2.58,0,1,1,0-5.15Zm-26.53-6,3.37-4.29h4.29v4.29ZM14,37.7h0a2.58,2.58,0,1,1,2.58-2.58A2.58,2.58,0,0,1,14,37.7Z" transform="translate(-5.47 -12.83)"/><rect class="cls-2" x="12.6" y="8.57" width="10.78" height="6.81"/><rect class="cls-2" x="24.66" y="8.41" width="12.99" height="7"/><rect class="cls-2" x="24.66" y="3.01" width="12.99" height="4.12"/><rect class="cls-2" x="12.64" y="1.33" width="10.78" height="5.72"/></svg>