<svg id="Layer_2" data-name="Layer 2" xmlns="http://www.w3.org/2000/svg" viewBox="0 0 36.98 36.98"><defs><style>.cls-1{fill:#fc0;}</style></defs><g id="ic_business_48px" data-name="ic business 48px"><g id="ic_local_grocery_store_48px" data-name="ic local grocery store 48px"><path id="Path_2781" data-name="Path 2781" class="cls-1" d="M11,34.86a3.7,3.7,0,1,0,3.69,3.7A3.7,3.7,0,0,0,11,34.86ZM-.07,5.28V9H3.62l6.65,14-2.5,4.53a3.82,3.82,0,0,0-.44,1.79A3.69,3.69,0,0,0,11,33H33.21V29.32H11.8a.47.47,0,0,1-.46-.46h0a.54.54,0,0,1,.05-.22l1.66-3H26.83a3.73,3.73,0,0,0,3.23-1.91l6.61-12a1.81,1.81,0,0,0,.23-.88A1.84,1.84,0,0,0,35.05,9H7.72L6,5.28ZM29.51,34.86a3.7,3.7,0,1,0,3.69,3.7,3.7,3.7,0,0,0-3.69-3.7Z" transform="translate(0.07 -5.28)"/></g></g></svg>