<svg id="Layer_10" data-name="Layer 10" xmlns="http://www.w3.org/2000/svg" viewBox="0 0 40.4 40.4"><defs><style>.cls-1{fill:#fc0;}</style></defs><path class="cls-1" d="M20.24,74.09a20.21,20.21,0,1,0,20.2,20.2A20.21,20.21,0,0,0,20.24,74.09Zm-5.9,34.62a2.65,2.65,0,1,1,0-5.29h0a2.65,2.65,0,0,1,0,5.29Zm13.23,0a2.65,2.65,0,1,1,0-5.29h0a2.65,2.65,0,0,1,0,5.29Zm5.12-21.84L28,95.45a2.65,2.65,0,0,1-2.31,1.36H15.79L14.61,99a.29.29,0,0,0,0,.16h0a.33.33,0,0,0,.33.33H30.21v2.64H14.34a2.64,2.64,0,0,1-2.64-2.64A2.7,2.7,0,0,1,12,98.18l1.78-3.24-4.75-10H6.4V82.26h4.32L12,84.91H31.53a1.31,1.31,0,0,1,1.16,2Z" transform="translate(-0.04 -74.09)"/></svg>