<svg id="Layer_3" data-name="Layer 3" xmlns="http://www.w3.org/2000/svg" viewBox="0 0 40.7 40.7"><defs><style>.cls-1{fill:#bc9aff;}</style></defs><g id="ic_business_48px" data-name="ic business 48px"><g id="ic_local_grocery_store_48px" data-name="ic local grocery store 48px"><path id="Path_2781" data-name="Path 2781" class="cls-1" d="M12.26,33.87a4.07,4.07,0,1,0,4.07,4.07h0a4.05,4.05,0,0,0-4-4.07ZM.05,1.31V5.38H4.12l7.32,15.43-2.75,5a4.07,4.07,0,0,0,3.56,6H36.68V27.76H13.13a.5.5,0,0,1-.51-.5.54.54,0,0,1,.06-.25L14.5,23.7H29.66a4.1,4.1,0,0,0,3.56-2.1L40.5,8.39a2.07,2.07,0,0,0,.25-1,2,2,0,0,0-2-2H8.63L6.7,1.31ZM32.61,33.87a4.07,4.07,0,1,0,4.07,4.07,4.07,4.07,0,0,0-4.07-4.07Z" transform="translate(-0.05 -1.31)"/></g></g></svg>