<svg id="Layer_11" data-name="Layer 11" xmlns="http://www.w3.org/2000/svg" viewBox="0 0 40.4 40.4"><defs><style>.cls-1{fill:#bc9aff;}</style></defs><path class="cls-1" d="M20.37,74.22a20.2,20.2,0,1,0,20.2,20.2A20.2,20.2,0,0,0,20.37,74.22Zm-2.58,30.5a2.58,2.58,0,1,1-2.57-2.58h0a2.56,2.56,0,0,1,2.55,2.57Zm10.3,2.57a2.58,2.58,0,1,1,0-5.15h0a2.58,2.58,0,0,1,0,5.15Zm5-21.26-4.6,8.35a2.56,2.56,0,0,1-2.25,1.33H16.64L15.49,97.8a.32.32,0,0,0,.28.48H30.66v2.57H15.21A2.57,2.57,0,0,1,13,97l1.74-3.16-4.63-9.76H7.5V81.55h4.2l1.22,2.57H32a1.29,1.29,0,0,1,1.28,1.29A1.22,1.22,0,0,1,33.07,86Z" transform="translate(-0.17 -74.22)"/></svg>