<svg id="Layer_6" data-name="Layer 6" xmlns="http://www.w3.org/2000/svg" viewBox="0 0 86 86"><defs><style>.cls-1{fill:#445e6f;}.cls-2{fill:#fff;}</style></defs><circle id="Ellipse_51-2" data-name="Ellipse 51-2" class="cls-1" cx="43" cy="43" r="43"/><path id="Path_2860" data-name="Path 2860" class="cls-2" d="M101.92,41.82V27.62l-7.1-7.1-7.1,7.1v4.73H73.53V65.48h42.58V41.82ZM83,60.74H78.26V56H83Zm0-9.46H78.26V46.55H83Zm0-9.46H78.26V37.08H83Zm14.2,18.92H92.45V56h4.74Zm0-9.46H92.45V46.55h4.74Zm0-9.46H92.45V37.08h4.74Zm0-9.47H92.45V27.62h4.74Zm14.2,28.39h-4.74V56h4.73Zm0-9.46h-4.74V46.55h4.73Z" transform="translate(-51.82)"/></svg>