<svg id="Layer_1" data-name="Layer 1" xmlns="http://www.w3.org/2000/svg" viewBox="0 0 37.75 41.95"><defs><style>.cls-1{fill:#00ceff;}</style></defs><g id="ic_business_48px" data-name="ic business 48px"><path id="Path_2956" data-name="Path 2956" class="cls-1" d="M33.89,4.34H25.11a6.24,6.24,0,0,0-11.8,0H4.53A4.19,4.19,0,0,0,.33,8.53h0V37.89a4.2,4.2,0,0,0,4.2,4.2H33.89a4.2,4.2,0,0,0,4.19-4.2h0V8.53a4.19,4.19,0,0,0-4.19-4.19Zm-14.68,0a2.1,2.1,0,1,1-2.1,2.09A2.1,2.1,0,0,1,19.21,4.34ZM23.4,33.7H8.72V29.5H23.4Zm6.29-8.39h-21v-4.2h21Zm0-8.39h-21V12.73h21Z" transform="translate(-0.33 -0.14)"/></g></svg>