<svg id="Layer_4" data-name="Layer 4" xmlns="http://www.w3.org/2000/svg" viewBox="0 0 40.91 32.94"><defs><style>.cls-1{fill:#d8b704;}</style></defs><g id="ic_business_48px" data-name="ic business 48px"><g id="Group_5105" data-name="Group 5105"><rect class="cls-1" x="6.56" y="13.84" width="11.86" height="10.16"/><path class="cls-1" d="M31.81,32.92A2.81,2.81,0,1,1,29,30.11,2.8,2.8,0,0,1,31.81,32.92Z" transform="translate(-0.22 -2.8)"/><circle class="cls-1" cx="6.22" cy="30.13" r="2.81"/><rect class="cls-1" x="20.17" y="13.83" width="11.85" height="10.16"/><path class="cls-1" d="M41.13,3.66a.87.87,0,0,1-.26.61l-6,5.9V28.72a.86.86,0,0,1-.88.86.44.44,0,0,1-.16,0,.67.67,0,0,1-.24,0H1.1a.88.88,0,0,1-.88-.86.83.83,0,0,1,.26-.61.84.84,0,0,1,.62-.26h32V9.8a.87.87,0,0,1,.11-.41.47.47,0,0,1,.06-.09l.06-.07.13-.12,6.18-6.06a.88.88,0,0,1,1.24,0A.87.87,0,0,1,41.13,3.66Z" transform="translate(-0.22 -2.8)"/><rect class="cls-1" x="12.58" y="2.37" width="11.85" height="10.15"/></g></g></svg>