<svg id="Layer_9" data-name="Layer 9" xmlns="http://www.w3.org/2000/svg" viewBox="0 0 40.4 40.4"><defs><style>.cls-1{fill:#d8b704;}</style></defs><path class="cls-1" d="M20.24,74.09a20.21,20.21,0,1,0,20.2,20.2A20.21,20.21,0,0,0,20.24,74.09ZM15.32,85.48h7.41v6.35H15.32Zm12.15,7.17V99H20.06V92.65Zm-15.91,0H19V99H11.56Zm-.22,11.93a1.76,1.76,0,1,1,1.76-1.76A1.75,1.75,0,0,1,11.34,104.59Zm14.11,0a1.76,1.76,0,1,1,1.76-1.76A1.76,1.76,0,0,1,25.45,104.59Zm7.41-19.67L29.1,88.61V100.2a.55.55,0,0,1-.55.54h-.1l-.15,0H8a.54.54,0,0,1-.54-.54.51.51,0,0,1,.16-.38A.55.55,0,0,1,8,99.67H28V88.38a.59.59,0,0,1,.07-.26.1.1,0,0,1,0-.05l0,0,.07-.08,3.87-3.79a.55.55,0,0,1,.77,0,.51.51,0,0,1,0,.76Z" transform="translate(-0.04 -74.09)"/></svg>