<svg id="Layer_5" data-name="Layer 5" xmlns="http://www.w3.org/2000/svg" viewBox="0 0 34.8 38.63"><defs><style>.cls-1{fill:#fff;}.cls-2{fill:none;}.cls-3{fill:#aca9a6;}</style></defs><g id="unplanned"><rect id="Rectangle_3946" data-name="Rectangle 3946" class="cls-1" x="5" y="10.5" width="26" height="25"/><g id="unplanned-ic"><g id="unplanned-ic-2"><path id="Path_3019" data-name="Path 3019" class="cls-2" d="M25.87,12.37a1.94,1.94,0,1,0-1.94-1.95h0a1.93,1.93,0,0,0,1.93,1.95Z" transform="translate(-8.47 -4.64)"/><rect id="Rectangle_3944" data-name="Rectangle 3944" class="cls-3" x="16.58" y="27.15" width="2.14" height="2.14"/><path id="Path_3020" data-name="Path 3020" class="cls-3" d="M39.4,8.5H31.31a5.76,5.76,0,0,0-10.87,0h-8.1a3.86,3.86,0,0,0-3.87,3.85h0V39.43a3.87,3.87,0,0,0,3.87,3.84H39.4a3.88,3.88,0,0,0,3.87-3.86v-27A3.86,3.86,0,0,0,39.4,8.5ZM23.93,10.42a1.94,1.94,0,1,1,1.93,1.95,2,2,0,0,1-1.37-.57A2,2,0,0,1,23.93,10.42ZM35.77,33.94a2.16,2.16,0,0,1-2.14,2.15H29.36L26.15,39.3l-3.22-3.21H18.62a2.15,2.15,0,0,1-2.15-2.15v-15a2.15,2.15,0,0,1,2.15-2.15h15a2.14,2.14,0,0,1,2.14,2.15Z" transform="translate(-8.47 -4.64)"/><path id="Path_3021" data-name="Path 3021" class="cls-3" d="M26.12,18.93a4.29,4.29,0,0,0-4.29,4.26H24a2.14,2.14,0,0,1,4.28,0,2.07,2.07,0,0,1-.63,1.49L26.3,26a4.33,4.33,0,0,0-1.25,3.12v.54h2.14a3.62,3.62,0,0,1,1.26-3l1-1a3.47,3.47,0,0,0,1-2.47A4.29,4.29,0,0,0,26.12,18.93Z" transform="translate(-8.47 -4.64)"/></g></g></g></svg>