<svg xmlns="http://www.w3.org/2000/svg" viewBox="0 0 51.97 51.97"><defs><style>.cls-1{fill:#aca9a6;}.cls-2{fill:none;}.cls-3{fill:#fff;}</style></defs><g id="Layer_4" data-name="Layer 4"><circle class="cls-1" cx="25.99" cy="25.99" r="25.99"/></g><g id="Layer_5" data-name="Layer 5"><g id="unplanned"><rect id="Rectangle_3946" data-name="Rectangle 3946" class="cls-1" x="14.94" y="16.79" width="23.19" height="22.3"/><g id="unplanned-ic"><g id="unplanned-ic-2"><path id="Path_3019" data-name="Path 3019" class="cls-2" d="M25.94,14.36a1.73,1.73,0,1,0-1.73-1.74h0a1.72,1.72,0,0,0,1.72,1.74Z" transform="translate(0.06 -0.04)"/><rect id="Rectangle_3944" data-name="Rectangle 3944" class="cls-3" x="25.27" y="31.64" width="1.91" height="1.91"/><path id="Path_3020" data-name="Path 3020" class="cls-3" d="M38,10.9H30.79a5.13,5.13,0,0,0-9.69,0H13.87a3.45,3.45,0,0,0-3.45,3.44h0V38.48a3.45,3.45,0,0,0,3.45,3.44H38a3.46,3.46,0,0,0,3.45-3.45V14.35A3.45,3.45,0,0,0,38,10.9ZM24.21,12.62a1.73,1.73,0,0,1,3.46,0,1.73,1.73,0,1,1-3.46,0Zm10.56,21a1.93,1.93,0,0,1-1.91,1.92H29.05l-2.86,2.86-2.87-2.86H19.47a1.92,1.92,0,0,1-1.92-1.92V20.2a1.92,1.92,0,0,1,1.92-1.92H32.86a1.93,1.93,0,0,1,1.91,1.92Z" transform="translate(0.06 -0.04)"/><path id="Path_3021" data-name="Path 3021" class="cls-3" d="M26.16,20.2A3.82,3.82,0,0,0,22.34,24h1.91a1.91,1.91,0,0,1,3.82,0,1.85,1.85,0,0,1-.56,1.33l-1.19,1.2a3.85,3.85,0,0,0-1.11,2.78v.48h1.91a3.24,3.24,0,0,1,1.12-2.7l.86-.89A3,3,0,0,0,30,24,3.82,3.82,0,0,0,26.16,20.2Z" transform="translate(0.06 -0.04)"/></g></g></g></g></svg>